<?xml version="1.0" encoding="UTF-8"?><svg id="Layer_1" xmlns="http://www.w3.org/2000/svg" viewBox="0 0 55.1 55.22"><defs><style>.cls-1{fill:#fff;}.cls-2{fill:#d38d36;}.cls-3{fill:none;stroke:#fff;stroke-miterlimit:10;}</style></defs><rect class="cls-2" width="55.1" height="55.22"/><rect class="cls-3" x="2.98" y="3.04" width="49.14" height="49.14"/><path class="cls-1" d="M46.41,11.71c-.33-2.02-.97-2.66-2.99-2.99-.59-.1-1.13-.27-1.61-.64-.54-.43-1.14-.75-1.8-.96h-.8c-.56,.16-1.1,.39-1.55,.76-.65,.53-1.4,.78-2.21,.92-1.68,.29-2.34,.96-2.62,2.64-.13,.81-.38,1.54-.9,2.18-.32,.41-.57,.86-.7,1.38-.21,.89,.09,1.67,.61,2.35,.54,.72,.88,1.5,1,2.4,.19,1.41,.97,2.3,2.41,2.53,.26,.04,.33,.16,.33,.42-.01,2.19-.01,4.38,0,6.56,0,.31-.08,.37-.37,.37-2.45-.01-4.9,0-7.35,0-.08,0-.18,.04-.27-.05,.02-.04,.04-.09,.07-.13,1.54-2.46,2.13-5.14,1.81-8.02-.07-.62-.26-1.2-.69-1.67-.72-.79-1.62-1.1-2.67-.88-1.14,.24-1.83,.98-2.13,2.09-.41,1.54-1.18,2.87-2.3,4-1.03,1.05-2.31,1.69-3.64,2.24-.29,.12-.62,.44-.86,.29-.19-.12-.05-.57-.06-.87-.01-.74-.27-1.01-1.02-1.01-2.64,0-5.27,0-7.91,0-.86,0-1.1,.24-1.1,1.09,0,6.78,0,13.55,0,20.33,0,.49,.13,.85,.57,1.08h8.87c.5-.13,.64-.31,.67-.84,.02-.32-.05-.65,.05-.96,.06,0,.09,0,.11,.01,.11,.06,.2,.13,.3,.2,.87,.56,1.83,.89,2.86,.89,5.03,.02,10.07,.03,15.1,0,1.84-.01,3.33-1.76,2.7-3.85-.09-.29-.03-.38,.21-.51,.86-.47,1.39-1.18,1.53-2.17,.1-.7-.02-1.37-.43-1.94-.23-.33-.31-.6,0-.91,.11-.11,.17-.27,.23-.42,.38-.99,.29-1.94-.3-2.82-.13-.19-.21-.34-.04-.57,1.05-1.44,.59-3.46-.9-4.3-.22-.12-.21-.24-.05-.4,.23-.23,.45-.45,.68-.68,.33-.33,.35-.33,.67,0,.73,.72,1.45,1.45,2.18,2.18,.28,.28,.6,.41,.98,.26,.4-.15,.61-.46,.65-.88,.02-.17,.01-.35,.01-.52,0-2.27,0-4.54,0-6.8,0-.58,0-.59,.55-.74,.67-.18,1.23-.51,1.63-1.09,.37-.53,.52-1.14,.61-1.76,.09-.68,.34-1.28,.76-1.82,.38-.48,.68-1.01,.74-1.65v-.88c-.22-.74-.64-1.38-1.1-2-.31-.42-.42-.91-.5-1.41ZM15.52,36.86c0,3.09,0,6.19,0,9.28,0,.29-.05,.38-.36,.38-2.04-.02-4.07-.02-6.11,0-.31,0-.36-.08-.36-.37,0-6.19,0-12.38,0-18.57,0-.28,.05-.38,.36-.38,2.04,.02,4.07,.02,6.11,0,.3,0,.37,.08,.37,.37-.01,3.09,0,6.19,0,9.28Zm14.37,2.41c2.38,0,4.77,0,7.15,0,.93,0,1.52,.7,1.3,1.53-.15,.56-.63,.89-1.31,.89-2.37,0-4.74,0-7.11,0-.13,0-.27,0-.4,0-.42,.03-.73,.33-.76,.73-.03,.39,.24,.75,.65,.84,.14,.03,.29,.02,.44,.02,1.92,0,3.83,0,5.75,0,.63,0,1.11,.47,1.17,1.09,.06,.61-.35,1.16-.95,1.29-.14,.03-.29,.03-.44,.03-2.46,0-4.93,0-7.39,0s-4.69-.03-7.03,.01c-1.6,.03-2.75-.74-3.76-1.86-.09-.1-.09-.22-.09-.34,0-4.63,0-9.26,0-13.89,0-.23,.09-.32,.28-.41,1.17-.53,2.4-.95,3.5-1.63,2.32-1.44,3.85-3.47,4.6-6.1,.23-.8,.75-1.19,1.43-1.06,.53,.1,.88,.5,.95,1.09,.31,2.57-.22,4.95-1.6,7.14-.25,.39-.51,.78-.77,1.16-.22,.31-.35,.63-.14,1,.2,.34,.51,.41,.89,.41,3.6,0,7.19,0,10.79,0,.86,0,1.44,.59,1.35,1.36-.07,.63-.5,1.04-1.15,1.05-.95,.01-1.89,0-2.84,0-1.56,0-3.12,0-4.67,0-.63,0-1.03,.4-.96,.91,.06,.44,.39,.69,.92,.69,1.8,0,3.6,0,5.39,0,.65,0,1.31,0,1.96,0,.8,0,1.35,.51,1.35,1.22,0,.71-.55,1.2-1.36,1.2-2.38,0-4.77,0-7.15,0-.74,0-1.11,.26-1.12,.78-.01,.53,.38,.82,1.13,.82Zm12.09-10.79c-.27-.27-.5-.5-.73-.73-.32-.32-.64-.64-.96-.96-.51-.51-.9-.51-1.4,0-.55,.54-1.09,1.09-1.69,1.7v-5.61c1.6,1.46,3.18,1.48,4.78-.01v5.62Zm4.06-12.06c-.75,.92-1.14,1.99-1.32,3.16-.12,.8-.35,1.02-1.16,1.14-1.13,.16-2.14,.55-3.06,1.25-.77,.59-1.08,.59-1.86,0-.91-.69-1.9-1.08-3.02-1.24-.86-.13-1.08-.34-1.2-1.18-.17-1.15-.57-2.17-1.28-3.1-.55-.73-.55-1.03,0-1.76,.71-.94,1.14-1.97,1.28-3.14,.08-.69,.46-1.08,1.15-1.15,1.18-.13,2.23-.57,3.16-1.31,.24-.19,.51-.34,.83-.36,.17-.01,.32,.05,.46,.12,.14,.07,.29,.14,.41,.24,.91,.74,1.96,1.17,3.12,1.3,.73,.08,1.11,.48,1.19,1.21,.13,1.15,.56,2.18,1.29,3.09,.47,.58,.48,1.16,0,1.74Z"/></svg>