<?xml version="1.0" encoding="UTF-8"?><svg id="Capa_1" xmlns="http://www.w3.org/2000/svg" viewBox="0 0 30.12 18.56"><defs><style>.cls-1{fill:#8e8e8e;}</style></defs><path class="cls-1" d="M13.41,.27s.07-.01,.1-.02c.28-.04,.58-.02,.86,0,.04,0,.09,0,.13,.02,.15-.03,.3-.07,.45-.14-.15-.05-.3-.08-.46-.1-.18-.02-.36-.04-.54-.04-.07,0-.13,0-.2,0-.07,0-.13,0-.19,.01-.19,.02-.36,.07-.51,.16,.05,.02,.11,.03,.16,.05,.07,.02,.14,.03,.21,.04Z"/><path class="cls-1" d="M13.94,0c-.07,0-.14,0-.2,0,.07,0,.14,0,.2,0Z"/><path class="cls-1" d="M15.4,18.56c.21,0,.42-.03,.63-.05h-1.34c.23,.06,.47,.06,.7,.05Z"/><ellipse class="cls-1" cx="20.65" cy="5.08" rx=".29" ry=".4"/><ellipse class="cls-1" cx="21.31" cy="5.08" rx=".4" ry=".29" transform="translate(14.92 26.04) rotate(-86.48)"/><path class="cls-1" d="M21.51,5.54c-.04,.19,.04,.37,.18,.4,.14,.03,.28-.11,.32-.3,.04-.19-.04-.37-.18-.4-.14-.03-.28,.11-.32,.3Z"/><path class="cls-1" d="M20.43,5.52c-.07-.18-.23-.3-.36-.25-.13,.05-.18,.23-.12,.42s.23,.3,.36,.25,.18-.23,.12-.42Z"/><path class="cls-1" d="M21.3,5.75c-.1-.08-.23-.1-.32-.1-.09,0-.22,.02-.32,.1,0,0-.33,.23-.38,.59-.05,.36,.14,.44,.26,.44,.12,0,.15,0,.25-.08,.09-.06,.13-.1,.18-.1,.05,0,.1,.04,.18,.1,.1,.07,.13,.08,.25,.08,.12,0,.31-.08,.26-.44-.05-.36-.38-.59-.38-.59Z"/><path class="cls-1" d="M12.79,.39c-.37,.44-.58,1.01-.85,1.52-.13,.25-.28,.5-.46,.72-.03,.03-.1,.15-.15,.16-.06,.01-.1-.11-.12-.16-.08-.16-.16-.32-.25-.48-.16-.31-.32-.61-.47-.92-.13-.26-.26-.52-.44-.75-.17-.21-.38-.37-.65-.43-.33-.07-.69-.06-1.02-.02-.32,.03-.66,.09-.96,.21-.23,.1-.44,.33-.37,.59,.07,.24,.32,.3,.5,.44,.22,.18,.18,.54,.19,.79,.01,.71,0,1.43-.03,2.14-.02,.33-.02,.66-.07,.98-.02,.12-.05,.24-.1,.35-.06,.13-.15,.22-.27,.3-.22,.16-.26,.42-.09,.64,.19,.23,.55,.27,.82,.3,.32,.04,.65,.03,.97-.01,.27-.04,.61-.09,.73-.37,.11-.25-.06-.43-.26-.56-.11-.07-.21-.15-.26-.28-.05-.13-.07-.27-.07-.4l.03-1.05c0-.13,.03-.18,.06-.27,.02,.02,.05,.04,.07,.07,0,0,0-.01,0-.02,0,0,0,0,.01,0,0,.02,.01,.03,.02,.05,0,0,0,0,0,0,.21,.25,.33,.58,.46,.87,.21,.46,.41,.93,.62,1.39,.07,.15,.18,.31,.35,.35,.18,.04,.33-.09,.42-.24,.12-.2,.2-.43,.3-.64,.11-.23,.21-.46,.32-.69,.17-.37,.32-.86,.68-1.08,.13,.2,.09,.52,.08,.74-.01,.3-.05,.61-.2,.88-.12,.22-.37,.4-.37,.67,0,.25,.2,.42,.41,.5,.26,.1,.55,.14,.82,.17,.32,.04,.65,.05,.97,.02,.3-.03,.6-.08,.89-.18,.12-.04,.29-.08,.39-.18,.08-.08,.08-.2,.04-.31-.01,0-.03,0-.04,0,0-.04,0-.07,0-.11-.1-.21-.29-.35-.43-.53-.19-.25-.2-.59-.22-.89-.05-.7-.04-1.4,.03-2.1,.02-.17,.04-.35,.06-.52,.02-.17,.04-.35,.12-.51,.11-.21,.31-.36,.43-.57,.13-.24,.13-.52-.12-.67-.12-.07-.25-.13-.38-.17-.14,.06-.29,.11-.45,.14,.25,.03,.5,.1,.71,.23,.25,.15-.02,.45-.14,.6-.17,.2-.3,.39-.35,.65-.11,.63-.15,1.29-.16,1.93,0,.33,0,.66,.03,.98,.02,.28,.03,.58,.15,.84,.11,.23,.31,.38,.45,.57,.04,.05,.14,.19,.11,.26-.02,.04-.13,.06-.17,.08-.08,.03-.16,.06-.25,.08-.57,.17-1.19,.18-1.77,.1-.24-.03-.53-.06-.75-.2-.08-.05-.16-.13-.15-.23,0-.13,.12-.24,.19-.34,.35-.43,.38-.97,.38-1.51,0-.24-.02-.49-.2-.66-.04-.04-.09-.04-.14-.02-.34,.15-.52,.49-.67,.81-.2,.44-.4,.88-.6,1.31-.05,.1-.09,.2-.14,.31-.04,.08-.08,.18-.15,.22-.17,.11-.29-.22-.33-.33-.2-.44-.4-.89-.6-1.33-.18-.4-.35-.82-.72-1.08-.05-.03-.13,0-.16,.04,0,0-.11,.3-.14,.64-.02,.34-.05,.59-.04,.88,0,.24,.04,.5,.19,.7,.07,.09,.16,.16,.26,.22,.09,.06,.2,.13,.17,.25-.03,.14-.19,.19-.31,.21-.15,.04-.31,.06-.46,.07-.32,.03-.64,0-.95-.05-.13-.03-.29-.05-.39-.15-.09-.09-.12-.22-.02-.31,.09-.08,.19-.14,.27-.24,.07-.09,.12-.2,.16-.31,.08-.24,.1-.5,.11-.76,.04-.67,.07-1.33,.07-2,0-.33,0-.65-.01-.98-.01-.24-.05-.5-.25-.66-.13-.11-.47-.2-.45-.41,.03-.28,.5-.34,.71-.39,.32-.07,.64-.09,.97-.09,.3,0,.58,.04,.81,.26,.18,.17,.3,.4,.42,.62,.15,.29,.3,.58,.45,.87,.15,.29,.28,.59,.45,.87,.05,.09,.13,.18,.25,.18,.13,0,.22-.12,.3-.21,.35-.42,.58-.92,.82-1.4,.12-.25,.25-.49,.4-.72,.15-.22,.32-.37,.56-.43-.07-.01-.14-.03-.21-.04-.06-.01-.11-.03-.16-.05-.09,.05-.17,.12-.24,.21Z"/><path class="cls-1" d="M13.09,.68c-.28,.32-1.06,1.86-1.28,2.19s-.34,.34-.63,.34-.56-.79-.98-1.7c-.42-.91-.6-.93-.92-1.07-.32-.14-1.22,.05-1.54,.09s-.26,.19-.26,.19c.06,.23,.42,.24,.56,.38s.13,1.01,.14,1.79,.05,1.71-.14,2.39c-.19,.68-.2,.55-.43,.85-.23,.31,.75,.19,1.28,.19s.4-.1,.19-.23c-.2-.13-.33-.51-.4-.78-.06-.27,.03-1.21,.08-1.51,.05-.29,.26-.56,.36-.61,.1-.05,.45,.27,.73,.7,.28,.43,.66,1.42,.83,1.88,.17,.46,.24,.13,.24,.13,0,0,.63-1.51,.89-1.99s.68-.63,.85-.48c.18,.14,.33,.57,.31,1.31s-.42,1.15-.42,1.15c-.2,.2-.23,.22,.22,.38s1.16,.1,1.77,.09,.52-.11,.5-.22c-.03-.1-.32-.2-.5-.63-.18-.42-.14-.82-.15-1.47s.09-1.89,.15-2.21,.08-.5,.33-.79,.31-.37,.09-.5-.43-.18-.93-.22c-.5-.04-.66,.01-.94,.33Z"/><path class="cls-1" d="M16.03,3.53c.1,.07,.27,.1,.32,.22,.07,.14,.04,.36,.04,.51,0,.2-.02,.55-.02,.6s-.05,.39-.06,.44c-.01,.05-.07,.35-.22,.45-.22,.16-.36,.45-.22,.71,.14,.27,.52,.33,.78,.38,.35,.07,.7,.1,1.06,.08,.35-.02,.69-.08,1.02-.18,.15-.04,.33-.09,.44-.2,.09-.1,.12-.24,.1-.36-.02-.14-.11-.25-.22-.34-.12-.09-.28-.13-.39-.22-.13-.11-.11-.37-.11-.52,0-.19,0-.37,0-.56,0-.1,.02-.19,.03-.29,0-.05,.01-.1,.02-.15,0-.02,.02-.09,.01-.09,.01,0,.16,.1,.19,.12,.08,.05,.17,.1,.25,.15,.14,.08,.28,.14,.45,.15,.17,0,.35-.03,.51-.08,.32-.09,.52-.37,.63-.66,.11-.29,.13-.61,0-.9-.11-.26-.32-.47-.6-.55-.31-.09-.68-.01-.97,.12-.14,.07-.22,.17-.31,.29-.04,.06-.07,.11-.12,.15,0,0-.02,0-.02,.01,0,0,0,0,0,0,0-.03,0-.06,0-.09-.01-.34-.31-.47-.61-.46-.36,0-.73,.05-1.08,.16-.17,.05-.35,.11-.52,.18-.14,.06-.29,.12-.4,.23-.19,.19-.23,.53,.01,.7Zm.15-.54c.11-.11,.27-.16,.41-.22,.31-.12,.63-.22,.96-.25,.16-.02,.32-.03,.48-.03,.14,0,.34,.02,.36,.19,.02,.1,0,.2,.05,.28,.08,.11,.22,.1,.32,.04,.1-.06,.16-.17,.22-.26,.09-.14,.21-.19,.36-.24,.29-.09,.63-.13,.87,.09,.21,.18,.3,.46,.27,.73-.02,.15-.07,.29-.13,.42-.07,.13-.17,.29-.31,.35-.13,.06-.3,.09-.43,.1-.18,.02-.32-.03-.47-.12-.14-.08-.27-.17-.41-.24-.11-.06-.24-.07-.31,.04-.07,.1-.07,.26-.09,.38-.02,.18-.03,.36-.04,.53,0,.17,0,.34,.02,.51,.01,.15,.02,.31,.11,.43,.15,.2,.56,.22,.6,.5,.02,.16-.11,.21-.24,.25-.16,.05-.32,.1-.48,.13-.35,.08-.72,.1-1.08,.08-.18-.01-.36-.03-.54-.07-.16-.03-.33-.06-.48-.14-.14-.07-.22-.18-.17-.34,.05-.16,.2-.2,.29-.32,.11-.12,.13-.3,.18-.47,.04-.17,.07-.6,.07-.69,0-.09,.04-.58,0-.86-.02-.12-.06-.22-.16-.3-.09-.07-.23-.1-.31-.18-.09-.1-.03-.25,.05-.33Z"/><path class="cls-1" d="M16.64,3.37c.17,.05,.11,.29,.11,.96s-.14,1.31-.26,1.58c-.06,.12-.24,.13-.31,.29-.07,.16,.41,.36,1.39,.35,.55,0,1.26-.15,1.34-.27,.08-.12-.15-.21-.51-.39-.35-.18-.18-1.2-.19-1.66,0-.46,.19-.82,.67-.5,.48,.33,.78,.31,.78,.31,.38-.03,.55-.2,.68-.6,.12-.4-.11-.86-.46-.92-.35-.06-.57,.11-.68,.2-.11,.1-.24,.29-.48,.42s-.49-.07-.45-.28c.04-.21-.07-.2-.24-.21s-.86,.08-1.22,.2c-.35,.12-.44,.12-.58,.26-.15,.15,.23,.19,.4,.25Z"/><path class="cls-1" d="M4.12,13.14c.06-.22,.33-.6,.33-.6,0,0,.23-.33,.35-.54,.19-.32,.4-.65,.72-.86,.31-.2,.67-.28,1.03-.35,.41-.07,.82-.14,1.23-.17,.43-.03,.85-.02,1.26,.08,.31,.07,.68,.13,.93-.12,.25-.24,.18-.59,0-.85-.2-.31-.49-.58-.75-.84-.28-.26-.58-.49-.93-.64-.31-.13-.72-.25-1.05-.15-.37,.11-.26,.64-.37,.92-.11,.27-.58,.39-.88,.21-.24-.14-.18-.59-.14-.82,.04-.2,.15-.23,.33-.31,.14-.06,.25-.15,.32-.29,.36-.68-.41-1.26-.86-1.63-.64-.54-1.32-1.03-2.1-1.35-.33-.14-.73-.28-1.03,0-.27,.25-.25,.68,.02,.92-.02,.04-.03,.09,0,.14,.24,.51,.3,1.07,.31,1.62,.01,.56,.08,.88-.05,1.43-.21,.87-.99,1.87-1.86,2.08-.21,.05-.44,.03-.65,.09C.08,11.22,0,11.41,0,11.63c0,.54,.28,.97,.65,1.34,.4,.4,.8,.8,1.29,1.09,.24,.14,.5,.26,.76,.37,.22,.09,.45,.2,.69,.25,.22,.04,.46,.03,.64-.12,.19-.17,.21-.41,.17-.64-.04-.27-.15-.51-.08-.78Zm-.1,1.15c-.49,.64-1.89-.43-2.33-.76C-.05,12.2,.03,11.63,.21,11.39c.37-.48,.74,.08,1.17-.16,.24-.14,.61-.5,1.27-1.37,.39-.51,.43-.74,.43-1.37l-.12-1.93c-.05-.84-.74-1.14-.4-1.57,.16-.2,.4-.65,2.47,.93,1.85,1.41,1.57,1.74,1.42,1.94-.18,.23-.49,.13-.63,.32-.15,.2-.22,1.03,0,1.2,.23,.18,.96-.01,1.12-.22,.19-.25-.05-.46,.2-.8,.4-.52,1.43,.26,1.77,.52,1.11,.85,1.3,1.2,1,1.59-.43,.57-.82-.25-1.63-.11l-2.01,.37c-.76,.19-.99,.44-1.47,1.06-.62,.82-.85,1.21-.9,1.44-.07,.35,.44,.66,.12,1.08Z"/><path class="cls-1" d="M12.53,16.43c.18-.26,.36-.54,.48-.84,.13-.31,.12-.65,.11-.98-.02-.66-.23-1.23-.62-1.78-.42-.58-.91-.86-1.69-1.12-1.41-.5-3.18-.15-4.08,1.1-.01,.01-.02,.03-.02,.04-.01,.01-.02,.02-.03,.04-.32,.58-.54,1.25-.49,1.92,.05,.67,.34,1.38,.81,1.84,.5,.49,1.1,.71,1.72,.81,.71,.12,1.43,.1,2.13-.05,.33-.07,.68-.17,.98-.33,.29-.16,.52-.39,.71-.66Zm-4.06,.84c-1.57-.53-2.59-1.89-2.03-3.57,.64-1.9,2.66-2.41,4.41-1.82,1.85,.62,2.43,2.43,1.99,3.74-.58,1.74-2.8,2.17-4.36,1.65Z"/><path class="cls-1" d="M9.97,12.98c-.35-.12-.65,.15-.73,.46-.18,.68-.54,2.38,.18,2.66,.4,.16,.59-.15,.71-.49,.16-.48,.57-2.39-.15-2.63Zm.18,1.08c0,.14,0,.28,0,.42,0,.15-.05,.28-.07,.42-.02,.14,0,.28-.03,.42-.03,.14-.09,.28-.16,.41-.06,.11-.12,.22-.26,.22-.11,0-.21-.05-.28-.14-.18-.21-.15-.52-.13-.78,.02-.3,.05-.6,.07-.9,.02-.26,.02-.53,.15-.75,0,0,.11-.27,.37-.23,.26,.03,.27,.11,.29,.15,.11,.21,.05,.55,.05,.77Z"/><path class="cls-1" d="M12.61,14.66c-.04-.74-.27-1.64-1.2-2.2-.92-.56-2.53-.73-3.7,.03-.47,.34-.99,1.02-1.01,2.09-.02,1.1,.66,1.97,1.75,2.31,1.1,.35,2.37,.21,2.97-.18,.6-.39,1.22-1.33,1.18-2.07Zm-2.05,.08c-.13,1.5-.46,1.51-.64,1.65-.18,.14-.85,.18-1.16-.55s.12-2.45,.22-2.66c.11-.21,.3-.65,.96-.57,.66,.08,.75,.63,.62,2.13Z"/><path class="cls-1" d="M17.99,18.1c.32-.15,.56-.51,.51-.88-.06-.43-.51-.49-.84-.6-.13-.05-.19-.09-.22-.22-.03-.12-.05-.24-.08-.36-.06-.26-.11-.52-.15-.78-.02-.15-.11-.47,0-.61,.09-.1,.26,0,.35,.04,.1,.05,.2,.1,.31,.13,0,0,0,0,.01,0,.28,.12,.64,.11,.94,.06,.27-.05,.5-.22,.67-.44,.34-.46,.46-1.17,.21-1.69-.24-.5-.93-.73-1.45-.7-.25,.01-.56,.07-.75,.23-.11,.09-.17,.23-.24,.35-.02,.03-.2,.4-.24,.4-.04,0-.07-.19-.09-.22-.03-.07-.05-.15-.08-.22-.07-.14-.19-.22-.35-.24-.37-.03-.76,.06-1.1,.18-.02,0-.04,.02-.06,.04-.58,.2-1.27,.41-1.62,.93-.15,.23-.24,.54-.04,.78,.15,.18,.39,.2,.56,.35,0,0,0,0,0,.01,.16,.46,.24,.93,.26,1.41,.02,.41,.06,.86-.18,1.21-.12,.17-.25,.32-.28,.53-.01,.08,0,.15,.02,.22,0,0,0,0,0,0,0,.03,.02,.06,.03,.09,.03,.06,.08,.12,.13,.16,.14,.12,.3,.19,.46,.23h1.34c.27-.03,.53-.07,.79-.12,.38-.07,.8-.12,1.16-.29Zm-3.81-.23c-.07-.46,.44-.54,.51-.94,.05-.29,0-.92-.05-1.23l-.1-.66c-.16-1.08-.75-.38-.85-1.05-.13-.87,2.43-1.49,2.53-1.5,.42-.06,.45,.05,.55,.42,.03,.13,.06,.39,.24,.36,.27-.04,.31-.94,1.26-1.07,.74-.11,1.31,.38,1.41,1.11,.11,.74-.44,1.42-1.17,1.52-.72,.1-1.01-.5-1.3-.46-.31,.04-.15,.78-.12,.98,.05,.33,.15,.79,.26,1.2,.14,.48,.93,.06,1.03,.72,.1,.7-.87,.89-2.08,1.07-.51,.07-2.01,.31-2.12-.45Z"/><path class="cls-1" d="M21.44,8.41c-.29-.16-.63-.07-.92,.06-.32,.14-.6,.35-.88,.55-.28,.2-.56,.4-.81,.64-.39,.37-1.05,1.09-.72,1.67,.08,.14,.22,.24,.38,.27,.17,.03,.35,0,.52,.03,.37,.06,.7,.25,.96,.53,.02,.02,.04,.03,.06,.04,.34,.39,.68,.79,.98,1.21,.31,.44,.62,.88,.93,1.32,.14,.2,.31,.41,.39,.64,.08,.24,0,.48,0,.73,.02,.53,.52,.65,.95,.5,.03,0,.05-.03,.07-.04,0,0,.02,0,.02,0,.26-.05,.47-.26,.67-.42,.22-.18,.43-.35,.64-.53,.11-.1,.22-.2,.35-.29,0,0,.51-.51,.71-.69,.13-.12,.28-.54,.21-.78-.06-.2-.23-.33-.42-.4-.22-.08-.47-.05-.69-.14-.12-.05-.21-.14-.28-.25-.07-.11-.16-.23-.16-.37,0-.02,0-.04,0-.06,0,0,0-.01,0-.02,0-.14,.59,0,.66,0,.25,.04,.5,.08,.75,.12,.47,.08,.95,.19,1.42,.22,.19,.01,.39,0,.56-.07,.22-.09,.41-.26,.6-.4,.37-.28,.75-.56,1.12-.85,.3-.23,.59-.52,.6-.92,0-.4-.3-.65-.67-.7-.22-.03-.43,0-.65-.02-.26-.01-.52-.05-.78-.09-.47-.06-.95-.13-1.42-.2-.54-.08-1.09-.16-1.63-.26-.2-.04-.41-.08-.58-.2-.19-.14-.23-.36-.26-.58,.07-.52,.07-1.09,.42-1.51,.28-.33,.73-.62,.65-1.12-.03-.19-.15-.35-.33-.43-.21-.1-.47-.05-.7,0-.5,.11-.88,.48-1.28,.79-.02,.01-.03,.03-.04,.04-.26,.2-.53,.41-.75,.66-.22,.24-.42,.53-.44,.86-.01,.32,.18,.58,.45,.73,.09,.05,.14,.08,.17,.17,.03,.09,.05,.19,.07,.28,.04,.18,.06,.36,.08,.54,0,.02-.01,.04,0,.06,0,.17,0,.34-.05,.51-.04,.12-.07,.14-.17,.08-.07-.04-.14-.1-.19-.16-.24-.27-.27-.64-.25-.99,.02-.3-.01-.6-.3-.77Zm.5,1.86c.09,.11,.31,.36,.46,.23,.23-.19,.19-1.64,.03-1.84-.15-.18-.36-.16-.51-.35-.52-.64,.65-1.54,1.07-1.88,.42-.34,1.39-1.2,1.89-.59,.58,.71-.67,1.02-.72,1.57-.03,.31-.34,1.44-.04,1.81,.19,.23,.57,.27,.84,.32l3.5,.6c.5,.08,1-.38,1.43,.15,.35,.43-.05,.84-.39,1.11l-1.47,1.2c-.34,.28-.37,.26-1.06,.11l-1.17-.24c-.29-.05-1.31-.27-1.51-.11-.23,.18-.08,.44,.13,.69l.15,.18c.34,.42,.91,0,1.26,.43,.23,.28,.24,.7-1.29,1.94-1.37,1.11-1.73,1.02-1.97,.73-.37-.45,.26-.57-.23-1.37-.32-.55-.76-1.11-1.16-1.6-.44-.54-.94-1.17-1.46-1.62-.72-.65-.92,.04-1.35-.49-.11-.14-.59-.56,1.31-2.11,.41-.33,1.3-1.07,1.79-.48,.37,.46-.33,.57,.5,1.59Z"/><path class="cls-1" d="M17.26,17.05c-.33-.2-.27-.24-.43-1.11-.16-.87-.13-1.02-.12-1.37,.01-.35,.37-.61,1.03-.35s.98,.16,1.2,.06c.23-.1,.56-.69,.32-1.27-.25-.58-1.17-.53-1.4-.36s-.15,.47-.65,.85c-.5,.38-.76-.41-.8-.54-.04-.13-.22-.08-1.02,.13-.8,.21-1.23,.61-1.31,.81-.08,.2,.26,.21,.26,.21,.23,0,.21,.09,.42,.49,.21,.4,.26,1.79,.28,2.26,.02,.47-.33,.8-.46,.96s.3,.26,.88,.26,1.81-.26,2.19-.36c.38-.11,.46-.25,.32-.41-.14-.17-.38-.05-.71-.25Z"/><path class="cls-1" d="M21.3,9.14c.02-.28-.01-.37-.3-.35s-.8,.38-1.32,.76-1.1,1.07-1.19,1.37c-.09,.3,.28,.2,.28,.2,1.07-.08,1.62,.67,1.9,1.02,.28,.36,1.51,1.97,1.91,2.64,.4,.67,.19,1.22,.19,1.22,0,.41,.57,.1,1.21-.42,.64-.52,1.3-1.14,1.5-1.43s-.2-.35-.26-.35-.36-.04-.36-.04c0,0-.82-.12-.92-1.01s.82-.69,.82-.69l2.38,.37c.48,.03,.42-.09,.59-.16s1.27-1.05,1.64-1.25c.37-.2,.32-.55,.09-.61-.23-.06-.9,0-1.44-.06s-1.24-.16-1.24-.16c-1.15-.14-1.96-.33-2.37-.42-.42-.09-.78-.43-.76-1.28s.28-1.37,.43-1.61c.14-.24,.69-.63,.63-.84-.05-.22-.64,.05-.99,.24s-1.36,1.1-1.52,1.41c-.16,.31-.1,.42,.22,.6,.32,.18,.32,.4,.41,.82,.09,.43,.09,.84-.09,1.35s-.53,.43-1.02,.05c-.49-.38-.44-1.09-.42-1.37Z"/><path class="cls-1" d="M3.91,12.37c.48-.67,.7-1.57,1.93-1.88,1.22-.31,2.41-.53,3.2-.27s.69-.17,.43-.39c-.25-.22-.93-.96-1.35-1.14-.37-.16-.77-.34-.78,.18,0,0,.13,.84-.7,.92-.84,.08-1.23-.15-1.27-.68-.04-.53-.03-1.09,.33-1.28,.36-.19,.53-.52,.22-.79s-1.79-1.49-2.27-1.65-.87-.29-.81,0c.06,.29,.41,.47,.5,1.67,.09,1.2,.23,1.84-.25,2.69s-.87,1.43-1.55,1.66-1.11,.04-1.04,.33c.18,.73,.78,1.09,.93,1.22,0,0,.86,.77,1.45,1,.59,.23,.91,.44,.77-.11-.13-.55-.24-.81,.25-1.48Z"/><path class="cls-1" d="M7.46,1.37s0-.02,0,0h0Z"/><path class="cls-1" d="M14.07,18.03s0,0,0,0c0,.03,.02,.06,.04,.09-.01-.03-.02-.06-.03-.09Z"/><path class="cls-1" d="M15.47,6.2s.03,0,.04,0c0-.01,0-.03-.01-.04,0-.02-.02-.04-.03-.07,0,.03,0,.07,0,.11Z"/><path class="cls-1" d="M9.3,3.89s0,0-.01,0c0,0,0,.01,0,.02,.01,.01,.02,.03,.04,.04,0,0,0,0,0,0,0-.02-.01-.03-.02-.05Z"/></svg>