<?xml version="1.0" encoding="utf-8"?>
<!-- Generator: Adobe Illustrator 26.4.1, SVG Export Plug-In . SVG Version: 6.00 Build 0)  -->
<svg version="1.1" baseProfile="basic" id="Layer_1"
	 xmlns="http://www.w3.org/2000/svg" xmlns:xlink="http://www.w3.org/1999/xlink" x="0px" y="0px" viewBox="0 0 81 48"
	 xml:space="preserve">
<style type="text/css">
	.st0{fill:#010101;}
</style>
<g>
	<g>
		<g>
			<ellipse class="st0" cx="54.82" cy="13.26" rx="0.73" ry="1.03"/>
			
				<ellipse transform="matrix(0.0615 -0.9981 0.9981 0.0615 39.8019 68.8444)" class="st0" cx="56.51" cy="13.26" rx="1.03" ry="0.73"/>
			
				<ellipse transform="matrix(0.1967 -0.9805 0.9805 0.1967 32.0449 68.2217)" class="st0" cx="57.65" cy="14.56" rx="0.91" ry="0.65"/>
			
				<ellipse transform="matrix(0.9422 -0.335 0.335 0.9422 -1.7862 18.8134)" class="st0" cx="53.65" cy="14.58" rx="0.65" ry="0.91"/>
			<path class="st0" d="M56.49,14.96c-0.27-0.21-0.58-0.26-0.82-0.27c-0.24,0-0.55,0.06-0.82,0.27c0,0-0.83,0.59-0.96,1.52
				c-0.13,0.93,0.37,1.12,0.68,1.13c0.31,0.01,0.38-0.02,0.64-0.19c0.22-0.15,0.33-0.25,0.47-0.25c0.14-0.01,0.24,0.09,0.47,0.25
				c0.26,0.18,0.33,0.2,0.64,0.19c0.31-0.01,0.8-0.21,0.68-1.13C57.32,15.55,56.49,14.96,56.49,14.96z"/>
		</g>
		<g>
			<path class="st0" d="M25.41,10.76c0.02-0.32,0.07-0.47,0.16-0.69c0.72,0.64,1.07,1.66,1.45,2.51c0.53,1.18,1.05,2.37,1.6,3.55
				c0.18,0.38,0.45,0.8,0.9,0.88c0.47,0.09,0.85-0.24,1.07-0.62c0.31-0.51,0.52-1.1,0.77-1.65c0.27-0.59,0.54-1.18,0.81-1.77
				c0.43-0.94,0.82-2.2,1.75-2.77c0.34,0.5,0.22,1.33,0.2,1.89c-0.03,0.77-0.12,1.57-0.5,2.25c-0.32,0.56-0.94,1.01-0.96,1.71
				c-0.01,0.65,0.51,1.07,1.06,1.29c0.66,0.27,1.4,0.35,2.11,0.43c0.82,0.1,1.65,0.12,2.48,0.05c0.77-0.07,1.54-0.21,2.28-0.46
				c0.31-0.11,0.75-0.21,0.99-0.45c0.24-0.24,0.18-0.6,0.07-0.89c-0.24-0.62-0.79-1.02-1.18-1.54c-0.5-0.65-0.51-1.51-0.56-2.29
				c-0.12-1.79-0.09-3.59,0.07-5.37c0.04-0.44,0.09-0.88,0.15-1.33c0.06-0.43,0.1-0.9,0.3-1.3c0.28-0.54,0.79-0.92,1.09-1.45
				c0.34-0.61,0.32-1.32-0.31-1.71c-0.65-0.39-1.4-0.58-2.15-0.67c-0.79-0.1-1.62-0.15-2.41-0.07c-0.77,0.07-1.43,0.36-1.93,0.95
				c-0.96,1.13-1.49,2.58-2.17,3.88c-0.34,0.65-0.71,1.29-1.17,1.85c-0.07,0.09-0.26,0.39-0.37,0.41c-0.15,0.03-0.25-0.29-0.31-0.4
				c-0.21-0.41-0.42-0.82-0.63-1.23c-0.4-0.78-0.81-1.57-1.21-2.35c-0.34-0.66-0.66-1.33-1.12-1.91c-0.42-0.54-0.98-0.94-1.65-1.09
				c-0.84-0.19-1.76-0.15-2.61-0.06C22.63,0.42,21.75,0.55,21,0.88c-0.58,0.25-1.13,0.84-0.94,1.52c0.18,0.62,0.82,0.77,1.28,1.13
				c0.57,0.45,0.47,1.38,0.48,2.03c0.04,1.82,0.01,3.65-0.08,5.47c-0.04,0.83-0.05,1.69-0.19,2.52c-0.05,0.31-0.12,0.62-0.26,0.9
				c-0.16,0.34-0.39,0.55-0.69,0.77c-0.55,0.41-0.68,1.08-0.23,1.63c0.48,0.59,1.4,0.68,2.1,0.77c0.83,0.1,1.66,0.09,2.49-0.03
				c0.69-0.1,1.55-0.22,1.87-0.94c0.28-0.64-0.15-1.11-0.65-1.44c-0.29-0.19-0.53-0.39-0.66-0.72c-0.13-0.33-0.17-0.69-0.18-1.04
				L25.41,10.76z M24.85,11.09c-0.06,0.87-0.12,1.51-0.11,2.26c0.01,0.62,0.1,1.28,0.48,1.79c0.18,0.24,0.41,0.4,0.66,0.56
				c0.22,0.15,0.52,0.32,0.44,0.63c-0.09,0.35-0.49,0.48-0.79,0.55c-0.39,0.09-0.79,0.15-1.19,0.18c-0.81,0.06-1.64,0.02-2.44-0.13
				c-0.34-0.07-0.74-0.14-1.01-0.38c-0.24-0.23-0.3-0.56-0.04-0.79c0.24-0.21,0.49-0.35,0.69-0.6c0.18-0.24,0.31-0.5,0.41-0.78
				c0.21-0.62,0.25-1.29,0.29-1.94c0.11-1.7,0.17-3.41,0.18-5.12c0-0.83,0-1.67-0.03-2.51c-0.03-0.61-0.14-1.27-0.63-1.69
				c-0.33-0.28-1.19-0.51-1.14-1.04c0.07-0.72,1.27-0.88,1.81-0.99c0.81-0.17,1.64-0.24,2.47-0.22c0.76,0.02,1.49,0.11,2.06,0.65
				c0.46,0.44,0.77,1.02,1.07,1.59c0.38,0.74,0.76,1.48,1.15,2.23c0.38,0.73,0.72,1.51,1.15,2.22C30.46,7.78,30.66,8,30.95,8
				c0.34,0,0.57-0.31,0.77-0.55c0.9-1.07,1.47-2.35,2.09-3.59c0.31-0.63,0.64-1.25,1.03-1.83c0.42-0.63,0.93-1.06,1.7-1.16
				c0.72-0.09,1.49-0.05,2.21,0.03c0.73,0.07,1.52,0.23,2.15,0.63c0.63,0.39-0.05,1.16-0.37,1.53c-0.44,0.51-0.77,0.99-0.89,1.66
				c-0.29,1.62-0.39,3.3-0.4,4.95c-0.01,0.84,0.02,1.68,0.07,2.52c0.05,0.72,0.07,1.49,0.38,2.16c0.27,0.58,0.79,0.96,1.16,1.47
				c0.09,0.13,0.37,0.49,0.29,0.67c-0.04,0.1-0.34,0.16-0.44,0.2c-0.21,0.08-0.42,0.15-0.63,0.21c-1.47,0.43-3.04,0.46-4.54,0.24
				c-0.62-0.09-1.36-0.16-1.91-0.5c-0.21-0.14-0.4-0.33-0.39-0.6c0.01-0.33,0.3-0.62,0.49-0.86c0.89-1.11,0.98-2.5,0.98-3.87
				c0-0.6-0.05-1.25-0.52-1.69c-0.1-0.1-0.23-0.1-0.36-0.05c-0.86,0.39-1.33,1.26-1.71,2.08c-0.52,1.12-1.03,2.24-1.54,3.36
				c-0.12,0.26-0.24,0.52-0.36,0.78c-0.09,0.2-0.2,0.45-0.39,0.58c-0.44,0.29-0.73-0.57-0.86-0.85c-0.51-1.13-1.02-2.27-1.53-3.4
				c-0.46-1.02-0.89-2.11-1.85-2.76c-0.13-0.09-0.33-0.03-0.4,0.11C25.2,9.46,24.91,10.23,24.85,11.09z"/>
			<path class="st0" d="M21.14,2.12c0,0-0.16-0.39,0.65-0.49s3.13-0.59,3.95-0.23s1.27,0.42,2.35,2.74c1.08,2.32,1.8,4.34,2.51,4.34
				c0.72,0,1.04-0.03,1.6-0.88c0.56-0.85,2.55-4.8,3.27-5.62c0.72-0.82,1.14-0.95,2.42-0.85s1.83,0.23,2.38,0.56
				c0.56,0.33,0.42,0.52-0.23,1.27s-0.68,1.21-0.85,2.03s-0.43,3.98-0.39,5.65c0.03,1.67-0.06,2.68,0.39,3.75s1.21,1.34,1.27,1.6
				c0.07,0.26,0.3,0.52-1.27,0.56c-1.57,0.03-3.4,0.2-4.54-0.23c-1.14-0.42-1.08-0.46-0.56-0.98c0,0,1.01-1.04,1.08-2.94
				s-0.33-3-0.78-3.36c-0.46-0.36-1.5,0-2.19,1.24c-0.69,1.24-2.29,5.09-2.29,5.09s-0.2,0.85-0.62-0.33
				c-0.42-1.18-1.4-3.69-2.12-4.8s-1.6-1.93-1.86-1.8s-0.78,0.82-0.91,1.57c-0.13,0.75-0.36,3.17-0.2,3.85
				c0.16,0.69,0.49,1.67,1.01,1.99s0.85,0.59-0.49,0.59s-3.85,0.29-3.27-0.49c0.59-0.78,0.62-0.46,1.11-2.19s0.39-4.11,0.36-6.11
				c-0.03-1.99,0-4.21-0.36-4.57S21.29,2.72,21.14,2.12z"/>
		</g>
		<g>
			<path class="st0" d="M54.84,7.36c-0.28-0.66-0.83-1.21-1.53-1.42c-0.79-0.23-1.75-0.04-2.48,0.31c-0.35,0.17-0.57,0.44-0.78,0.75
				c-0.1,0.14-0.19,0.28-0.32,0.39c-0.01,0.01-0.04,0.02-0.06,0.03c0,0,0,0,0,0c-0.01-0.08-0.01-0.16-0.01-0.23
				c-0.03-0.87-0.79-1.2-1.57-1.18c-0.93,0.03-1.87,0.13-2.77,0.4C44.88,6.56,44.44,6.72,44,6.89c-0.37,0.14-0.74,0.31-1.03,0.59
				c-0.49,0.5-0.58,1.35,0.03,1.79c0.25,0.18,0.69,0.25,0.83,0.56c0.17,0.37,0.11,0.92,0.1,1.31c0,0.5-0.05,1.4-0.06,1.54
				c-0.01,0.13-0.13,1.01-0.15,1.12c-0.03,0.12-0.18,0.89-0.56,1.16c-0.56,0.4-0.93,1.15-0.57,1.81c0.37,0.68,1.32,0.84,2.01,0.98
				c0.89,0.18,1.8,0.25,2.7,0.2c0.89-0.05,1.77-0.2,2.62-0.46c0.37-0.11,0.83-0.22,1.12-0.51c0.24-0.24,0.31-0.6,0.26-0.93
				c-0.06-0.36-0.29-0.65-0.57-0.87c-0.3-0.24-0.71-0.32-1-0.57c-0.33-0.28-0.27-0.95-0.29-1.34c-0.02-0.48-0.02-0.95,0.01-1.43
				c0.02-0.25,0.04-0.49,0.07-0.74c0.02-0.13,0.03-0.25,0.05-0.37c0.01-0.04,0.04-0.22,0.04-0.24c0.03,0.02,0.41,0.26,0.48,0.31
				c0.22,0.13,0.43,0.26,0.65,0.39c0.35,0.2,0.73,0.36,1.14,0.38c0.43,0.02,0.89-0.09,1.3-0.2c0.83-0.22,1.32-0.94,1.62-1.7
				C55.11,8.93,55.15,8.1,54.84,7.36z M54.45,8.73c-0.04,0.37-0.17,0.74-0.34,1.07c-0.18,0.34-0.43,0.74-0.79,0.9
				c-0.33,0.15-0.76,0.22-1.11,0.26c-0.45,0.05-0.82-0.09-1.2-0.31c-0.35-0.2-0.69-0.43-1.04-0.62c-0.28-0.15-0.6-0.19-0.8,0.1
				c-0.18,0.27-0.18,0.66-0.22,0.98c-0.06,0.45-0.09,0.91-0.09,1.37c-0.01,0.44,0.01,0.88,0.05,1.31c0.03,0.37,0.05,0.78,0.29,1.09
				c0.4,0.51,1.44,0.56,1.55,1.29c0.06,0.41-0.28,0.53-0.61,0.64c-0.4,0.14-0.81,0.25-1.22,0.34c-0.9,0.19-1.83,0.26-2.76,0.21
				c-0.47-0.03-0.93-0.09-1.39-0.18c-0.41-0.08-0.86-0.17-1.24-0.35c-0.35-0.17-0.57-0.47-0.44-0.86c0.13-0.4,0.5-0.52,0.75-0.81
				c0.27-0.32,0.34-0.77,0.45-1.2s0.17-1.54,0.18-1.78c0.01-0.24,0.1-1.49,0-2.21c-0.04-0.3-0.16-0.57-0.4-0.77
				c-0.24-0.19-0.59-0.25-0.8-0.46c-0.23-0.25-0.09-0.63,0.12-0.84c0.28-0.29,0.7-0.42,1.06-0.55c0.8-0.3,1.61-0.56,2.46-0.65
				c0.41-0.04,0.82-0.08,1.23-0.08c0.35,0,0.86,0.06,0.93,0.49c0.04,0.25-0.02,0.5,0.14,0.72c0.2,0.28,0.56,0.27,0.82,0.1
				c0.25-0.16,0.41-0.43,0.57-0.67c0.23-0.35,0.54-0.5,0.93-0.62c0.75-0.22,1.61-0.32,2.24,0.23C54.3,7.32,54.53,8.03,54.45,8.73z"
				/>
			<path class="st0" d="M52.87,6.71c-0.9-0.15-1.47,0.27-1.74,0.51c-0.27,0.24-0.61,0.73-1.22,1.08c-0.61,0.34-1.25-0.17-1.15-0.71
				c0.1-0.54-0.17-0.51-0.61-0.54s-2.2,0.2-3.11,0.51c-0.91,0.32-1.13,0.32-1.49,0.68c-0.38,0.38,0.58,0.5,1.02,0.63
				c0.44,0.13,0.29,0.75,0.29,2.46c0,1.71-0.35,3.36-0.68,4.03c-0.15,0.31-0.61,0.34-0.78,0.75c-0.17,0.41,1.06,0.93,3.57,0.9
				c1.42-0.02,3.23-0.37,3.43-0.69c0.2-0.32-0.39-0.53-1.3-1c-0.91-0.47-0.47-3.06-0.49-4.24c-0.02-1.18,0.49-2.11,1.71-1.27
				c1.22,0.83,1.98,0.78,1.98,0.78c0.98-0.07,1.42-0.51,1.74-1.54S53.77,6.86,52.87,6.71z"/>
		</g>
	</g>
	<path class="st0" d="M27.53,25.14c-0.51-0.79-1.25-1.5-1.93-2.14c-0.71-0.67-1.49-1.26-2.38-1.65c-0.79-0.34-1.84-0.63-2.7-0.38
		c-0.94,0.27-0.65,1.64-0.96,2.37c-0.29,0.69-1.48,1-2.24,0.54c-0.6-0.36-0.47-1.51-0.35-2.09c0.11-0.51,0.4-0.6,0.84-0.78
		c0.36-0.15,0.65-0.39,0.83-0.73c0.91-1.74-1.05-3.21-2.2-4.18c-1.63-1.38-3.38-2.64-5.37-3.44c-0.86-0.35-1.86-0.71-2.63,0.02
		c-0.68,0.64-0.63,1.74,0.06,2.35c-0.05,0.1-0.06,0.23,0,0.37c0.6,1.3,0.77,2.74,0.8,4.16c0.03,1.44,0.21,2.25-0.13,3.66
		c-0.53,2.24-2.54,4.78-4.76,5.33c-0.55,0.13-1.14,0.08-1.67,0.23c-0.59,0.17-0.8,0.65-0.8,1.23c0.02,1.38,0.71,2.47,1.66,3.43
		c1.02,1.03,2.06,2.06,3.31,2.8c0.62,0.37,1.28,0.67,1.94,0.95c0.57,0.24,1.15,0.52,1.77,0.63c0.56,0.1,1.18,0.08,1.63-0.32
		c0.48-0.43,0.54-1.04,0.44-1.64c-0.11-0.68-0.39-1.29-0.2-1.99c0.16-0.57,0.86-1.53,0.86-1.53s0.59-0.83,0.91-1.38
		c0.49-0.83,1.03-1.67,1.85-2.2c0.79-0.51,1.72-0.72,2.63-0.89c1.04-0.19,2.1-0.36,3.15-0.44c1.09-0.09,2.17-0.05,3.24,0.2
		c0.8,0.18,1.74,0.33,2.39-0.3C28.14,26.7,27.96,25.81,27.53,25.14z M11.74,33.51c-0.09,0.39-0.17,1.05-0.05,1.59
		c0.1,0.47,0.4,1.13,0.16,1.59c-0.25,0.46-0.87,0.36-1.29,0.25c-0.61-0.16-1.2-0.44-1.78-0.7c-0.63-0.28-1.26-0.59-1.84-0.97
		c-1.12-0.74-2.1-1.73-3.02-2.7c-0.45-0.48-0.83-1-1.02-1.64c-0.09-0.31-0.14-0.63-0.15-0.95c0-0.34,0.07-0.45,0.42-0.49
		c1.07-0.12,2.12-0.13,3-0.78c1.86-1.38,2.98-2.99,3.72-4.94c0.53-1.4,0.26-3.04,0.21-4.53c-0.05-1.48-0.27-2.93-0.9-4.28
		c0-0.01-0.01-0.02-0.01-0.03c0.09-0.14,0.1-0.32-0.07-0.47c-0.73-0.61-0.18-1.6,0.72-1.41c0.84,0.18,1.67,0.61,2.41,1.02
		c1.5,0.83,2.86,1.89,4.15,3.02c0.6,0.52,1.42,1.11,1.61,1.93c0.07,0.3,0.05,0.65-0.12,0.91c-0.22,0.34-0.65,0.37-0.98,0.56
		c-0.65,0.37-0.77,1.11-0.82,1.79c-0.05,0.66-0.09,1.49,0.35,2.02c1.01,1.22,3.25,0.69,3.84-0.49c0.15-0.3,0.01-1.07,0.07-1.4
		c0.03-0.17,0.06-0.39,0.17-0.53c0.15-0.19,0.4-0.19,0.63-0.19c0.9-0.01,1.76,0.32,2.51,0.79c0.76,0.47,1.41,1.09,2.02,1.74
		c0.49,0.52,1.39,1.25,1.44,2.02c0.06,1.07-1.52,0.63-2.07,0.51c-0.94-0.2-1.9-0.24-2.85-0.18c-1.04,0.06-2.06,0.23-3.09,0.39
		c-0.91,0.15-1.82,0.31-2.67,0.68c-0.85,0.37-1.54,0.95-2.1,1.68c-0.29,0.38-0.54,0.78-0.79,1.2
		C13.55,30.53,11.84,33.12,11.74,33.51z"/>
	<path class="st0" d="M29.65,30.25c-3.61-1.28-8.13-0.39-10.45,2.81c-0.03,0.04-0.04,0.07-0.06,0.11c-0.03,0.03-0.06,0.06-0.08,0.11
		c-0.82,1.49-1.39,3.2-1.27,4.91c0.13,1.72,0.86,3.52,2.07,4.71c1.29,1.27,2.82,1.82,4.41,2.09c1.81,0.3,3.65,0.26,5.44-0.13
		c0.86-0.19,1.73-0.44,2.51-0.86c0.75-0.4,1.32-1,1.81-1.69c0.47-0.66,0.93-1.39,1.24-2.14c0.33-0.79,0.31-1.66,0.29-2.5
		c-0.05-1.68-0.58-3.16-1.6-4.56C32.91,31.62,31.64,30.9,29.65,30.25z M34.76,38.78c-0.2,0.97-0.4,1.47-0.81,2.16
		c-0.38,0.64-0.66,0.98-1.21,1.49c-0.58,0.54-1.42,1.13-2.16,1.35c-1.57,0.48-2.49,0.81-4.87,0.56c-0.8-0.08-1.6-0.18-2.38-0.38
		c-0.73-0.19-1.26-0.51-1.89-0.94c-0.7-0.48-1.35-1.21-1.77-1.93c-0.44-0.76-0.85-1.53-1.01-2.4c-0.31-1.72,0.27-3.51,1.09-5.01
		c0.02-0.04,0.04-0.08,0.04-0.12c0.03-0.03,0.06-0.06,0.09-0.1c1.87-2.58,5.33-3.34,8.33-2.76c1.61,0.31,2.87,0.87,4.16,1.86
		c0.59,0.45,1.21,1.21,1.61,1.85c0.4,0.65,0.6,1.4,0.69,2.15C34.78,37.3,34.91,38.06,34.76,38.78z"/>
	<path class="st0" d="M25.45,34.02c-0.23,0.58-0.45,1.31-0.51,2.01c-0.07,0.82-0.22,1.64-0.28,2.47c-0.1,1.23,0.05,3.07,1.61,3.35
		c1.49,0.27,2.21-1.6,2.25-2.8c0.01-0.41,0.1-0.76,0.17-1.16c0.06-0.39,0.05-0.78,0.06-1.17c0.01-0.73,0.07-1.5-0.04-2.23
		c-0.11-0.72-0.21-1.23-1.28-1.44C26.34,32.84,25.68,33.44,25.45,34.02z M27.07,33.89c0.68,0.09,0.69,0.29,0.73,0.39
		c0.27,0.54,0.13,1.4,0.13,1.97c0,0.36,0,0.71-0.01,1.07c-0.01,0.37-0.12,0.71-0.18,1.08c-0.06,0.35-0.01,0.71-0.08,1.07
		c-0.07,0.37-0.22,0.71-0.4,1.04c-0.15,0.28-0.32,0.55-0.67,0.57c-0.28,0.01-0.54-0.13-0.72-0.35c-0.45-0.55-0.39-1.34-0.34-2
		c0.06-0.77,0.13-1.54,0.19-2.3c0.05-0.65,0.06-1.35,0.39-1.93C26.11,34.49,26.4,33.8,27.07,33.89z"/>
	<path class="st0" d="M34.26,37.77c-0.11-1.88-0.7-4.19-3.06-5.63c-2.36-1.44-6.48-1.86-9.46,0.08c-1.22,0.86-2.53,2.6-2.59,5.36
		c-0.06,2.8,1.68,5.03,4.49,5.92c2.81,0.89,6.08,0.54,7.61-0.45C32.77,42.07,34.37,39.65,34.26,37.77z M29.01,37.99
		c-0.34,3.84-1.17,3.86-1.64,4.22c-0.47,0.36-2.18,0.45-2.97-1.4c-0.79-1.85,0.3-6.28,0.57-6.82c0.27-0.54,0.78-1.67,2.47-1.46
		C29.13,32.73,29.35,34.15,29.01,37.99z"/>
	<path class="st0" d="M52.39,32.89c-0.62-1.27-2.38-1.86-3.7-1.79c-0.63,0.03-1.42,0.18-1.92,0.6c-0.28,0.24-0.44,0.59-0.62,0.91
		c-0.05,0.08-0.52,1.03-0.61,1.01c-0.09-0.02-0.19-0.48-0.22-0.56c-0.07-0.19-0.13-0.39-0.22-0.57c-0.18-0.37-0.48-0.57-0.89-0.6
		c-0.94-0.09-1.95,0.14-2.83,0.47c-0.06,0.02-0.11,0.05-0.15,0.09c-1.48,0.52-3.24,1.04-4.14,2.39c-0.39,0.59-0.62,1.38-0.11,1.98
		c0.38,0.45,1.01,0.51,1.42,0.89c0,0.01,0.01,0.02,0.01,0.04c0.41,1.17,0.61,2.37,0.66,3.61c0.04,1.04,0.16,2.19-0.46,3.09
		c-0.3,0.44-0.65,0.82-0.72,1.37c-0.06,0.48,0.12,0.9,0.49,1.21c0.85,0.7,1.94,0.75,2.99,0.71c1.22-0.05,2.44-0.21,3.65-0.43
		c0.98-0.18,2.06-0.3,2.97-0.74c0.83-0.39,1.43-1.3,1.3-2.24c-0.15-1.09-1.3-1.25-2.14-1.54c-0.33-0.12-0.48-0.23-0.57-0.57
		c-0.08-0.3-0.14-0.61-0.21-0.92c-0.15-0.66-0.28-1.33-0.38-2c-0.06-0.38-0.29-1.21,0.02-1.55c0.23-0.26,0.67-0.02,0.91,0.1
		c0.26,0.13,0.51,0.26,0.79,0.32c0.01,0,0.02,0.01,0.03,0.01c0.73,0.3,1.65,0.29,2.41,0.15c0.7-0.13,1.28-0.55,1.7-1.12
		C52.74,36.05,53.04,34.23,52.39,32.89z M51.66,35.91c-0.23,0.63-0.66,1.27-1.3,1.53c-0.64,0.26-1.56,0.25-2.24,0.02
		c-0.04-0.03-0.09-0.05-0.14-0.06c-0.48-0.1-0.87-0.43-1.35-0.53c-0.46-0.1-0.93,0.01-1.23,0.38c-0.57,0.72-0.23,1.92-0.09,2.73
		c0.1,0.57,0.22,1.13,0.34,1.69c0.1,0.45,0.14,0.99,0.43,1.37c0.28,0.36,0.73,0.5,1.15,0.62c0.44,0.12,1.2,0.25,1.29,0.81
		c0.06,0.42-0.21,0.94-0.54,1.19c-0.36,0.28-0.83,0.4-1.26,0.5c-1.09,0.25-2.21,0.46-3.32,0.61c-0.56,0.07-1.13,0.13-1.7,0.16
		c-0.6,0.03-1.29,0.11-1.87-0.06c-0.36-0.1-1.06-0.36-1.12-0.8c-0.07-0.52,0.54-1.02,0.77-1.42c0.57-0.98,0.47-2.19,0.43-3.28
		c-0.05-1.31-0.26-2.59-0.69-3.82c-0.01-0.03-0.02-0.06-0.04-0.08c-0.01-0.08-0.04-0.16-0.11-0.24c-0.33-0.36-0.77-0.48-1.18-0.71
		c-0.67-0.37-0.28-1.02,0.08-1.49c0.39-0.52,1.06-0.8,1.64-1.06c0.66-0.3,1.34-0.54,2.02-0.79c0.06-0.02,0.11-0.05,0.15-0.09
		c0,0,0,0,0,0c0.65-0.23,1.32-0.36,2.01-0.38c0.16,0,0.37-0.04,0.51,0.06c0.12,0.09,0.15,0.26,0.2,0.4c0.1,0.29,0.18,0.61,0.35,0.88
		c0.3,0.48,0.89,0.55,1.29,0.14c0.46-0.47,0.67-1.18,1.04-1.71c0.32-0.46,1.17-0.55,1.69-0.55c0.62-0.01,1.24,0.14,1.79,0.44
		c0.6,0.33,1.03,0.75,1.18,1.44C52,34.49,51.91,35.24,51.66,35.91z"/>
	<path class="st0" d="M67.89,37.59c0.33-0.3,0.71-1.38,0.53-2.01c-0.15-0.52-0.59-0.85-1.08-1.03c-0.57-0.21-1.21-0.13-1.77-0.35
		c-0.32-0.12-0.53-0.36-0.71-0.64c-0.19-0.28-0.41-0.6-0.42-0.94c0.01-0.05,0.01-0.1,0.01-0.16c0-0.02,0-0.04-0.01-0.05
		c0.01-0.35,1.51-0.01,1.69,0.02c0.64,0.11,1.27,0.21,1.91,0.32c1.2,0.2,2.42,0.48,3.64,0.57c0.49,0.04,0.99,0,1.44-0.18
		c0.57-0.23,1.05-0.67,1.53-1.04c0.95-0.72,1.91-1.44,2.85-2.17c0.77-0.59,1.52-1.32,1.54-2.36c0.02-1.02-0.76-1.67-1.72-1.8
		c-0.55-0.08-1.11-0.02-1.67-0.05c-0.67-0.03-1.34-0.13-2.01-0.22c-1.21-0.16-2.42-0.34-3.63-0.52c-1.39-0.21-2.79-0.41-4.18-0.66
		c-0.5-0.09-1.06-0.2-1.48-0.51c-0.48-0.36-0.6-0.93-0.68-1.49c0.17-1.32,0.18-2.8,1.07-3.85c0.71-0.84,1.88-1.59,1.65-2.86
		c-0.08-0.48-0.4-0.89-0.83-1.1c-0.55-0.27-1.22-0.12-1.78,0c-1.29,0.29-2.26,1.24-3.27,2.03c-0.04,0.03-0.08,0.07-0.1,0.11
		c-0.67,0.52-1.35,1.05-1.92,1.69c-0.56,0.62-1.08,1.35-1.12,2.21c-0.03,0.82,0.46,1.48,1.15,1.87c0.22,0.12,0.36,0.2,0.44,0.44
		c0.08,0.23,0.12,0.49,0.17,0.73c0.09,0.46,0.15,0.92,0.19,1.38c-0.02,0.05-0.03,0.1-0.02,0.16c0.02,0.44-0.01,0.88-0.14,1.3
		c-0.1,0.3-0.17,0.36-0.44,0.21c-0.19-0.1-0.35-0.24-0.5-0.4c-0.62-0.7-0.69-1.64-0.63-2.52c0.05-0.76-0.03-1.55-0.76-1.96
		c-0.74-0.41-1.62-0.17-2.35,0.15c-0.81,0.35-1.53,0.89-2.24,1.4c-0.72,0.51-1.43,1.03-2.08,1.63c-1,0.94-2.7,2.78-1.84,4.27
		c0.21,0.36,0.55,0.61,0.97,0.68c0.44,0.07,0.89-0.01,1.33,0.07c0.95,0.16,1.8,0.64,2.46,1.34c0.05,0.05,0.1,0.09,0.16,0.11
		c0.88,1.01,1.74,2.01,2.51,3.11c0.79,1.12,1.59,2.24,2.38,3.38c0.35,0.51,0.8,1.04,0.99,1.64c0.2,0.62-0.01,1.24,0.01,1.87
		c0.04,1.36,1.34,1.66,2.44,1.29c0.08-0.03,0.14-0.07,0.18-0.12c0.02,0,0.04,0,0.06-0.01c0.67-0.13,1.2-0.67,1.72-1.08
		c0.55-0.45,1.1-0.9,1.64-1.37c0.29-0.25,0.57-0.52,0.88-0.74C66.07,39.37,67.37,38.06,67.89,37.59z M76.64,29.58
		c-1.01,0.77-2.01,1.54-3.02,2.3c-0.43,0.32-0.84,0.59-1.39,0.63c-0.58,0.04-1.17-0.09-1.74-0.19c-1.43-0.24-2.87-0.47-4.3-0.71
		c-0.58-0.1-1.28-0.32-1.85-0.12c-0.44,0.15-0.71,0.54-0.7,0.98c0,0.02-0.01,0.03-0.01,0.05c-0.06,0.6,0.33,1.19,0.68,1.66
		c0.33,0.45,0.76,0.74,1.31,0.87c0.52,0.12,1.08,0.08,1.57,0.3c0.67,0.3,0.51,0.95,0.2,1.47c-0.3,0.5-0.48,0.66-0.93,1.09
		c-0.42,0.4-1.16,1.04-1.6,1.42c-0.5,0.43-1.01,0.86-1.52,1.28c-0.5,0.41-1.06,1.04-1.72,1.16c-0.09,0.02-0.16,0.06-0.21,0.11
		c-0.01,0-0.02,0-0.03,0.01c-0.51,0.17-1.34,0.31-1.41-0.44c-0.06-0.58,0.12-1.15,0.04-1.74c-0.16-1.12-1.05-2.1-1.68-2.99
		c-0.74-1.05-1.48-2.1-2.22-3.15c-0.74-1.04-1.59-1.97-2.43-2.93c-0.06-0.07-0.13-0.11-0.19-0.12c-0.49-0.48-1.07-0.85-1.71-1.11
		c-0.35-0.14-0.72-0.23-1.1-0.29c-0.19-0.03-0.37-0.05-0.56-0.05c-0.23-0.01-0.51,0.05-0.73-0.01c-0.36-0.1-0.49-0.52-0.45-0.85
		c0.04-0.44,0.3-0.84,0.53-1.2c0.49-0.76,1.13-1.4,1.82-1.98c0.66-0.55,1.37-1.04,2.08-1.52c0.7-0.48,1.47-1.01,2.33-1.15
		c0.4-0.06,0.88,0,1.06,0.42c0.15,0.36,0.06,0.8,0.04,1.18c-0.04,0.81,0.09,1.67,0.52,2.37c0.36,0.58,1.25,1.5,2.02,1.19
		c0.72-0.29,0.83-1.44,0.81-2.17c0.02-0.05,0.04-0.12,0.03-0.19c-0.06-0.85-0.16-1.76-0.43-2.57c-0.13-0.38-0.33-0.61-0.68-0.81
		c-0.33-0.18-0.66-0.4-0.8-0.77c-0.3-0.82,0.39-1.65,0.91-2.21c0.58-0.62,1.25-1.14,1.92-1.66c0.05-0.04,0.08-0.07,0.1-0.11
		c0.82-0.66,1.64-1.45,2.68-1.71c0.44-0.11,1.1-0.31,1.49,0c0.41,0.32,0.26,0.89,0.03,1.27c-0.26,0.43-0.68,0.75-1.03,1.11
		c-0.35,0.36-0.65,0.78-0.86,1.24c-0.22,0.47-0.3,0.95-0.37,1.46c-0.08,0.6-0.17,1.21-0.25,1.81c0,0.03-0.01,0.07,0,0.1
		c-0.01,0.04-0.01,0.08,0,0.13c0.14,1.01,0.5,1.88,1.47,2.32c0.99,0.45,2.18,0.52,3.24,0.69c2.43,0.38,4.87,0.78,7.32,1.04
		c0.61,0.06,1.2,0.06,1.81,0.07c0.5,0.01,1.19,0.06,1.44,0.58C78.65,28.16,77.31,29.07,76.64,29.58z"/>
	<path class="st0" d="M38.67,36.37c0,0-0.88-0.02-0.68-0.54s1.31-1.53,3.35-2.07s2.52-0.68,2.61-0.34c0.09,0.34,0.77,2.36,2.05,1.38
		c1.28-0.98,1.08-1.74,1.67-2.17s2.94-0.56,3.58,0.92c0.63,1.48-0.23,2.99-0.81,3.24c-0.59,0.25-1.42,0.52-3.08-0.16
		c-1.67-0.68-2.59-0.01-2.62,0.89s-0.1,1.29,0.31,3.52s0.25,2.32,1.1,2.84s1.46,0.23,1.82,0.65s0.16,0.79-0.81,1.06
		c-0.97,0.27-4.14,0.92-5.61,0.92s-2.56-0.25-2.24-0.65s1.22-1.26,1.17-2.45c-0.05-1.19-0.18-4.75-0.72-5.78
		S39.25,36.37,38.67,36.37z"/>
	<path class="st0" d="M50.01,28.71c0,0-0.95,0.25-0.71-0.51c0.24-0.76,1.7-2.5,3.04-3.49c1.35-1,2.66-1.91,3.39-1.96
		c0.73-0.05,0.81,0.19,0.76,0.89c-0.05,0.71-0.17,2.52,1.08,3.49c1.25,0.98,2.16,1.18,2.6-0.12c0.44-1.3,0.46-2.35,0.22-3.44
		c-0.24-1.1-0.24-1.64-1.05-2.11c-0.81-0.47-0.96-0.74-0.56-1.54s2.99-3.12,3.88-3.61c0.89-0.49,2.4-1.18,2.53-0.62
		c0.14,0.56-1.25,1.54-1.62,2.16c-0.37,0.62-1.04,1.94-1.09,4.12c-0.05,2.18,0.89,3.04,1.96,3.27c1.06,0.24,3.12,0.73,6.08,1.08
		c0,0,1.77,0.25,3.17,0.41c1.4,0.15,3.11,0,3.7,0.15s0.73,1.05-0.22,1.57c-0.95,0.52-3.75,3.02-4.19,3.21
		c-0.44,0.19-0.29,0.47-1.52,0.41l-6.09-0.95c0,0-2.35-0.52-2.11,1.76c0.24,2.28,2.35,2.58,2.35,2.58s0.76,0.1,0.91,0.1
		c0.15,0,1.16,0.15,0.66,0.89c-0.51,0.74-2.19,2.33-3.83,3.66c-1.64,1.33-3.12,2.13-3.11,1.08c0,0,0.52-1.42-0.49-3.12
		c-1.01-1.7-4.17-5.84-4.88-6.75S52.76,28.5,50.01,28.71z"/>
	<path class="st0" d="M5.68,33.38c0,0,2.21,1.98,3.71,2.57s2.32,1.13,1.98-0.27c-0.34-1.4-0.61-2.07,0.63-3.78
		c1.24-1.71,1.8-4.03,4.93-4.81c3.13-0.79,6.17-1.35,8.19-0.7s1.76-0.43,1.1-0.99c-0.65-0.56-2.38-2.47-3.44-2.93
		c-0.94-0.41-1.98-0.88-2,0.45c0,0,0.34,2.16-1.8,2.36s-3.15-0.38-3.24-1.73c-0.09-1.35-0.07-2.79,0.86-3.29
		c0.92-0.5,1.35-1.33,0.56-2.03c-0.79-0.7-4.59-3.83-5.81-4.23c-1.22-0.41-2.23-0.74-2.07,0c0.16,0.74,1.06,1.22,1.28,4.28
		c0.23,3.06,0.59,4.7-0.65,6.89s-2.23,3.67-3.96,4.25C4.22,30,3.11,29.51,3.3,30.25C3.77,32.12,5.3,33.05,5.68,33.38z"/>
</g>
</svg>
