<?xml version="1.0" encoding="UTF-8"?><svg id="Layer_1" xmlns="http://www.w3.org/2000/svg" viewBox="0 0 55.1 55.22"><defs><style>.cls-1{fill:#fefefe;}.cls-2{fill:#d38d36;}.cls-3{fill:none;stroke:#fff;stroke-miterlimit:10;}</style></defs><g><rect class="cls-2" width="55.1" height="55.22"/><rect class="cls-3" x="2.98" y="3.04" width="49.14" height="49.14"/></g><g><path class="cls-1" d="M42.83,42.22c-1.52-2.68-3.04-5.37-4.58-8.05-.19-.32-.14-.48,.12-.74,3.72-3.69,5.36-8.16,4.63-13.35-.79-5.65-3.9-9.68-9.04-12.14-.78-.37-1.59-.65-2.43-.86-.68-.17-1.23,.31-1.09,.95,.09,.42,.41,.57,.79,.67,7.62,2.04,12.04,10.1,9.67,17.65-2.69,8.55-12.54,12.39-20.34,7.91-7.79-4.47-9.34-15.23-3.13-21.71,1.81-1.89,3.98-3.18,6.51-3.87,.61-.16,.88-.57,.74-1.07-.13-.47-.58-.67-1.17-.52-6.2,1.67-10.82,6.99-11.46,13.3-.52,5.11,1.08,9.48,4.76,13.08,.21,.2,.25,.34,.1,.61-1.58,2.75-3.13,5.51-4.7,8.26-.2,.35-.26,.7,0,1.03,.25,.31,.57,.36,.96,.28,1.71-.37,3.43-.71,5.13-1.08,.28-.06,.38,.02,.47,.27,.58,1.66,1.17,3.32,1.75,4.98,.12,.35,.3,.63,.63,.8h.49c.37-.09,.56-.37,.73-.67,1.51-2.67,3.03-5.32,4.54-7.99,.2-.35,.36-.73,.63-1.04,.16,.07,.2,.21,.26,.32,.72,1.26,1.42,2.53,2.14,3.78,.94,1.64,1.86,3.28,2.8,4.92,.17,.3,.36,.58,.73,.67h.49c.33-.18,.51-.45,.63-.8,.57-1.65,1.17-3.29,1.74-4.94,.1-.29,.21-.36,.52-.3,1.72,.38,3.45,.73,5.17,1.09,.35,.07,.66,0,.88-.3,.22-.29,.23-.6,.06-.92-.05-.08-.09-.17-.14-.25Zm-21.28,3.6c-.22-.62-.43-1.2-.64-1.79-.31-.86-.61-1.73-.92-2.59-.21-.58-.53-.76-1.14-.63-1.32,.28-2.65,.55-3.97,.83-.12,.02-.24,.03-.4,.05,.9-1.59,1.78-3.15,2.66-4.7,.36-.64,.74-1.28,1.09-1.93,.12-.22,.2-.21,.39-.08,2.25,1.58,4.76,2.48,7.49,2.76-.08,.3-4.05,7.34-4.56,8.08Zm14.72-5c-.63-.13-.94,.04-1.16,.66-.47,1.31-.93,2.62-1.4,3.93-.04,.12-.1,.25-.17,.43-1.55-2.72-3.06-5.38-4.6-8.09,1.19-.13,2.32-.34,3.42-.7,1.48-.48,2.85-1.16,4.13-2.05,.12-.09,.22-.24,.37,.02,1.24,2.21,2.5,4.42,3.8,6.7-1.52-.31-2.95-.6-4.38-.9Z"/><path class="cls-1" d="M15.22,22.18c0,6.79,5.53,12.33,12.32,12.33,6.79,0,12.33-5.53,12.33-12.32,0-6.79-5.53-12.33-12.32-12.33-6.79,0-12.33,5.53-12.33,12.32Zm23.01,.06c-.03,5.88-4.85,10.66-10.73,10.63-5.88-.02-10.65-4.83-10.64-10.72,.02-5.88,4.82-10.66,10.71-10.65,5.9,.01,10.69,4.84,10.66,10.74Z"/><path class="cls-1" d="M27.55,8.21c.45,0,.83-.38,.82-.84-.01-.44-.38-.8-.82-.8-.46,0-.83,.38-.82,.84,.01,.44,.38,.8,.82,.8Z"/><path class="cls-1" d="M19.75,19.86c-.14,.4,.03,.71,.32,.99,.84,.81,1.63,1.67,2.5,2.44,.48,.42,.56,.83,.43,1.42-.25,1.2-.42,2.42-.62,3.64-.04,.69,.63,1.08,1.29,.74,1.19-.61,2.38-1.22,3.56-1.85,.23-.12,.41-.13,.64,0,1.19,.63,2.4,1.25,3.59,1.87,.32,.17,.63,.17,.92-.05,.27-.21,.37-.5,.32-.84-.23-1.35-.45-2.7-.68-4.04-.04-.23,.01-.38,.18-.54,.96-.94,1.91-1.88,2.87-2.82,.28-.27,.42-.58,.29-.96-.13-.36-.42-.51-.79-.56-1.3-.19-2.6-.39-3.9-.57-.29-.04-.45-.17-.57-.43-.56-1.17-1.15-2.32-1.73-3.48-.17-.34-.38-.6-.8-.61-.43,0-.66,.25-.84,.61-.58,1.18-1.17,2.34-1.75,3.52-.11,.23-.26,.35-.51,.38-1.3,.19-2.6,.4-3.89,.58-.38,.05-.69,.18-.83,.56Zm4.62,.52c1.75-.27,1.43-.03,2.21-1.58,.3-.6,.6-1.19,.9-1.79,.01-.02,.03-.04,.09-.12,.43,.86,.87,1.66,1.23,2.49,.26,.61,.68,.85,1.32,.91,.8,.08,1.6,.23,2.39,.35,.09,.01,.18,.04,.22,.05-.68,.71-1.35,1.42-2.04,2.12-.32,.32-.45,.64-.36,1.1,.19,.96,.32,1.94,.49,2.93-.2,0-.32-.11-.45-.18-.74-.38-1.48-.75-2.21-1.15-.4-.22-.75-.22-1.16,0-.86,.47-1.74,.91-2.68,1.4,.12-.73,.22-1.39,.33-2.05,.02-.11,.02-.22,.06-.32,.35-.94,0-1.6-.74-2.21-.57-.48-1.05-1.07-1.58-1.63,.65-.1,1.33-.21,2.01-.31Z"/></g></svg>